<?xml version="1.0" encoding="utf-8"?>
<!-- Generator: Adobe Illustrator 28.1.0, SVG Export Plug-In . SVG Version: 6.00 Build 0)  -->
<!DOCTYPE svg PUBLIC "-//W3C//DTD SVG 1.1//EN" "http://www.w3.org/Graphics/SVG/1.1/DTD/svg11.dtd" [
	<!ENTITY ns_extend "http://ns.adobe.com/Extensibility/1.0/">
	<!ENTITY ns_ai "http://ns.adobe.com/AdobeIllustrator/10.0/">
	<!ENTITY ns_graphs "http://ns.adobe.com/Graphs/1.0/">
	<!ENTITY ns_vars "http://ns.adobe.com/Variables/1.0/">
	<!ENTITY ns_imrep "http://ns.adobe.com/ImageReplacement/1.0/">
	<!ENTITY ns_sfw "http://ns.adobe.com/SaveForWeb/1.0/">
	<!ENTITY ns_custom "http://ns.adobe.com/GenericCustomNamespace/1.0/">
	<!ENTITY ns_adobe_xpath "http://ns.adobe.com/XPath/1.0/">
]>
<svg version="1.1" id="Calque_1" xmlns:x="&ns_extend;" xmlns:i="&ns_ai;" xmlns:graph="&ns_graphs;"
	 xmlns="http://www.w3.org/2000/svg" xmlns:xlink="http://www.w3.org/1999/xlink" x="0px" y="0px" viewBox="0 0 586.6 152"
	 style="enable-background:new 0 0 586.6 152;" xml:space="preserve">
<style type="text/css">
	.st0{fill:#E30613;}
</style>
<metadata>
	<sfw  xmlns="&ns_sfw;">
		<slices></slices>
		<sliceSourceBounds  bottomLeftOrigin="true" height="152" width="585.9" x="133.3" y="-279.9"></sliceSourceBounds>
	</sfw>
</metadata>
<path d="M137.7,104.3L137.7,104.3c-4.7-2.5-10.7-0.7-13.2,4c-0.1,0.2-0.2,0.4-0.4,0.7c-7.6,14.1-22.1,22.6-37.5,23.1
	c-24.1,0-43.6-19.8-43.7-44c0-0.7,0-1.5,0.1-2.2l0.1-0.9l0,0c0.1-1.6,0.5-5.1,0.9-6.9c2.7-11.5,9.6-21.3,19.7-27.6
	c10.1-6.3,21.9-8.3,33.4-5.6c8.8,2,16.5,6.5,22.6,13.1c-6.9,6.4-26.7,23.3-56.6,37.3c-2,0.9-3.6,2.5-4.6,4.5c-1.2,2.4-1.4,5-0.6,7.5
	c0.8,2.5,2.6,4.5,4.9,5.7c2.7,1.4,5.9,1.4,8.6,0.1c1.9-0.9,46.9-21.7,68.9-48.4c2.6-3.4,2.8-8,0.5-11.5c-2.8-4.3-6.3-8.4-10.3-12.1
	c-5.7-5.2-11.8-8.7-12.1-8.8c-5.3-3-11-5.2-16.9-6.6c-5.4-1.2-10.8-1.8-16.3-1.6c-11.3,0.3-22.4,3.7-32.1,9.7
	C38.6,42.9,28.5,57,24.6,73.7c-0.8,3.7-1.4,7.6-1.5,11.6l0,0.7c0,0.7,0,1.5,0,2.2c0,2.1,0.1,4.2,0.3,6.2c0,0.1,0,0.2,0,0.2
	c3.3,31.9,30,56.8,62.6,57.3c23.1-0.3,44.7-13.1,55.9-34.3C144.4,112.8,142.6,106.9,137.7,104.3z"/>
<circle class="st0" cx="575.1" cy="138.7" r="11.1"/>
<path d="M209.2,76.8h-36.4c-5.7,0-10.3,4.6-10.3,10.3s4.6,10.3,10.3,10.3h36.4c5.7,0,10.3-4.6,10.3-10.3S214.9,76.8,209.2,76.8z"/>
<path d="M291.3,25c-32.9,0-59.5,25.8-60.6,58.7c0,0.3,0,0.6,0,0.8v54.3c0,6.1,5,11.1,11.1,11.1c6.1,0,11.1-5,11.1-11.1V85.8l0-0.6
	C253,63,270.3,45,291.3,45c21,0,38.2,18.1,38.4,40.3l0,53.5c0,6.1,5,11.1,11.1,11.1s11.1-5,11.1-11.1V84.5c0-0.3,0-0.6,0-0.8
	C350.8,50.7,324.2,25,291.3,25z"/>
<path d="M547.7,148.3c0.7-0.1,1.3-0.3,1.9-0.6c0.1,0,0.2-0.1,0.4-0.1c0.5-0.2,1-0.5,1.5-0.8c0,0,0,0,0.1,0c1-0.7,1.9-1.6,2.6-2.6
	c0,0,0,0,0-0.1c0.3-0.5,0.6-1,0.8-1.5c0-0.1,0.1-0.2,0.1-0.3c0.2-0.4,0.3-0.9,0.4-1.4c0-0.1,0.1-0.3,0.1-0.4
	c0.1-0.6,0.2-1.2,0.2-1.8c0,0,0,0,0,0c0-0.6-0.1-1.2-0.2-1.8c0-0.1-0.1-0.3-0.1-0.4c-0.1-0.5-0.2-0.9-0.4-1.4c0-0.1-0.1-0.2-0.1-0.4
	c-0.2-0.5-0.5-1-0.8-1.4c0,0-0.1-0.1-0.1-0.1c-0.7-1-1.6-1.9-2.6-2.6c0,0,0,0,0,0c-0.5-0.3-1-0.6-1.5-0.8c-0.1-0.1-0.3-0.1-0.4-0.2
	c-1.1-0.4-2.2-0.7-3.4-0.7l0,0l-0.1,0c-11.4,0-30.8-4.2-32.3-31.4V45.9h22.7c5.4,0,9.8-4.4,9.8-9.8s-4.4-9.8-9.8-9.8h-22.7V9.8
	c0-5.4-4.4-9.8-9.8-9.8S494,4.4,494,9.8v82.9c0,19.2,5.4,33.8,15.9,43.5c12.2,11.1,27.6,12.4,33.7,12.4c1.1,0,1.9,0,2.3-0.1l0,0
	C546,148.5,546.7,148.4,547.7,148.3z"/>
<path d="M477.7,104.3L477.7,104.3c-4.7-2.5-10.7-0.7-13.2,4c-0.1,0.2-0.2,0.4-0.4,0.7c-7.6,14.1-22.1,22.6-37.5,23.1
	c-24.1,0-43.6-19.8-43.7-44c0-0.7,0-1.5,0.1-2.2l0.1-0.9l0,0c0.1-1.6,0.5-5.1,0.9-6.9c2.7-11.5,9.6-21.3,19.7-27.6
	c10.1-6.3,21.9-8.3,33.4-5.6c8.8,2,16.5,6.5,22.6,13.1c-6.9,6.4-26.7,23.3-56.6,37.3c-2,0.9-3.6,2.5-4.6,4.5c-1.2,2.4-1.4,5-0.6,7.5
	c0.8,2.5,2.6,4.5,4.9,5.7c2.7,1.4,5.9,1.4,8.6,0.1c1.9-0.9,46.9-21.7,68.9-48.4c2.6-3.4,2.8-8,0.5-11.5c-2.8-4.3-6.3-8.4-10.3-12.1
	c-5.7-5.2-11.8-8.7-12.1-8.8c-5.3-3-11-5.2-16.9-6.6c-5.4-1.2-10.8-1.8-16.3-1.6c-11.3,0.3-22.4,3.7-32.1,9.7
	c-14.5,9.1-24.6,23.3-28.5,39.9c-0.8,3.7-1.4,7.6-1.5,11.6l0,0.7c0,0.7,0,1.5,0,2.2c0,2.1,0.1,4.2,0.3,6.2c0,0.1,0,0.2,0,0.2
	c3.3,31.9,30,56.8,62.6,57.3c23.1-0.3,44.7-13.1,55.9-34.3C484.3,112.8,482.5,106.9,477.7,104.3z"/>
<path class="st0" d="M19,95l0-0.1c-0.1-0.5-0.1-1.1-0.1-1.6c-6.2,6.6-11,12.8-14.1,18.4c-5.3,9.9-6,18.3-2,24.9
	c3.1,5.1,9.4,9.8,22.2,9.8c5.7,0,12.6-0.9,21.1-3.2c-5-3.8-9.5-8.2-13.4-13.1c-10.4,1.5-15.6,0-16.6-1.6c-0.9-1.5,0.1-7.1,6.9-16.2
	c-2.1-5.4-3.5-11.2-4.1-17.2C19,95.1,19,95,19,95z"/>
<path class="st0" d="M169.3,36L169.3,36c-4.6-7.6-16.4-14.4-46-5.9c2.5,1.6,6.4,4.3,10.2,7.8c1.7,1.5,3.2,3.2,4.7,4.8
	c11.4-1.9,16.8-0.1,17.7,1.4c0.6,0.9,0.7,5.3-5.4,14.1c-0.1,0.1-7.2,11.6-27.5,27.5l-2.5,1.9c-7.5,5.8-15.5,11.3-23.9,16.3
	c-10.9,6.6-22,12.2-32.7,16.7c6.2,4.4,13.8,6.9,21.9,7c6.3-3.2,12.6-6.6,18.8-10.4c15.2-9.2,29.2-19.6,40.6-30
	C168,66.2,176.6,48,169.3,36z"/>
</svg>
